<svg width="138" height="157" viewBox="0 0 138 157" fill="none" xmlns="http://www.w3.org/2000/svg">
<path fill-rule="evenodd" clip-rule="evenodd" d="M135.341 110.909L133.11 105.293L129.703 97.3202L129.565 97.1749C119.22 73.3535 108.325 49.8225 96.8954 26.566L96.437 25.6299L92.9225 18.1413C91.4709 15.0749 89.683 12.2021 87.6049 9.55527C83.036 3.4708 76.0528 -0.0636875 68.6877 0.000869235C61.3836 0.0331476 54.4462 3.45466 49.7551 9.3616C47.7228 12.0407 45.9503 14.9135 44.4375 17.9476L40.4035 26.2109C28.9584 49.6612 17.9106 73.3696 7.70324 96.8199L7.56571 97.1265C6.67945 99.6926 5.50285 102.323 4.29569 105.132C3.54695 106.842 2.81348 108.714 2.06474 110.748C0.18524 116.138 -0.425979 121.916 0.292204 127.613C1.91194 139.234 9.21601 149.095 19.5151 153.533C23.3046 155.211 27.3845 156.067 31.495 156.035C32.7785 156.018 34.0621 155.905 35.3304 155.728C40.5563 155.018 45.5836 153.21 50.1219 150.418C57.0134 146.077 63.2172 140.589 68.4585 134.166C73.7455 140.557 79.9188 146.044 86.795 150.418C91.3333 153.226 96.3606 155.034 101.587 155.728C102.855 155.905 104.138 156.002 105.422 156.035C109.532 156.083 113.612 155.228 117.402 153.533C127.701 149.095 135.005 139.234 136.625 127.613C137.71 122.029 137.251 116.219 135.28 110.909H135.341ZM68.6724 119.044C60.696 108.408 55.5159 98.4338 53.7433 89.9769C53.0252 86.862 52.8724 83.6341 53.2849 80.4547C53.5753 78.0984 54.4004 75.8551 55.6534 73.8699C58.6637 69.4478 63.5229 66.8817 68.6724 66.9785C73.8372 66.7687 78.7422 69.351 81.6913 73.8377C82.9596 75.7905 83.7695 78.05 84.0598 80.3902C84.4877 83.5696 84.3349 86.7974 83.6014 89.9123C81.8289 98.1917 76.6794 108.037 68.6724 118.979V119.044ZM127.686 126.355C126.524 134.489 121.451 141.396 114.208 144.479C110.678 146.061 106.812 146.658 102.992 146.206C99.0194 145.689 95.1993 144.318 91.7459 142.155C85.4045 138.104 79.7049 133.004 74.8915 127.049C84.6405 114.395 90.5846 102.872 92.8003 92.5107C93.7629 88.1531 94.0074 83.6664 93.549 79.212C92.9989 75.387 91.6237 71.7557 89.5455 68.5763C84.778 61.3943 76.9544 57.1982 68.6571 57.3596C60.4056 57.2466 52.6279 61.3782 47.7992 68.4472C45.7211 71.6266 44.3458 75.2579 43.7957 79.0829C43.1692 83.5212 43.429 88.0402 44.5445 92.3816C46.7754 102.678 52.8418 114.412 62.4532 127.065C57.6704 133.052 51.9861 138.168 45.5988 142.171C42.1607 144.366 38.3101 145.786 34.3218 146.335C30.5017 146.787 26.651 146.238 23.0754 144.769C15.863 141.703 10.7288 134.795 9.59802 126.661C9.12432 122.578 9.59802 118.43 10.9427 114.573C11.4011 113.007 12.1193 111.555 12.8528 109.586C13.8766 107.084 15.0837 104.421 16.2603 101.775L16.3978 101.468C26.6052 78.2114 37.546 54.4545 48.9453 31.3109L49.3731 30.1973L52.9182 22.9992C54.0642 20.5138 55.5006 18.1897 57.1815 16.0755C62.7435 9.16793 72.5536 8.34483 79.0784 14.2195C79.7049 14.7844 80.3008 15.4138 80.8356 16.0755C82.4401 18.1897 83.7848 20.4815 84.8697 22.9347L88.4148 30.1327L88.8426 31.0688C100.135 54.3899 111.122 78.1145 121.298 101.42V101.565C122.475 104.066 123.529 106.875 124.706 109.376C125.455 111.248 126.188 112.814 126.616 114.363C127.838 118.253 128.19 122.384 127.64 126.451L127.686 126.355Z" fill="#F15C61"/>
</svg>
