<?xml version="1.0" encoding="utf-8"?>
<!-- Generator: Adobe Illustrator 23.0.1, SVG Export Plug-In . SVG Version: 6.00 Build 0)  -->
<svg version="1.1" id="Layer_1" xmlns="http://www.w3.org/2000/svg" xmlns:xlink="http://www.w3.org/1999/xlink" x="0px" y="0px"
	 viewBox="0 0 1000 1000" style="enable-background:new 0 0 1000 1000;" xml:space="preserve">
<style type="text/css">
	.st0{fill-rule:evenodd;clip-rule:evenodd;fill:#F15C61;}
</style>
<path class="st0" d="M936.7,703.8L922.1,669l-22.3-49.4l-0.9-0.9c-67.7-147.6-139-293.4-213.8-437.5l-3-5.8l-23-46.4
	c-9.5-19-21.2-36.8-34.8-53.2c-29.9-37.7-75.6-59.6-123.8-59.2c-47.8,0.2-93.2,21.4-123.9,58c-13.3,16.6-24.9,34.4-34.8,53.2
	L315.4,179c-74.9,145.3-147.2,292.2-214,437.5l-0.9,1.9C94.7,634.3,87,650.6,79.1,668c-4.9,10.6-9.7,22.2-14.6,34.8
	c-12.3,33.4-16.3,69.2-11.6,104.5c10.6,72,58.4,133.1,125.8,160.6c24.8,10.4,51.5,15.7,78.4,15.5c8.4-0.1,16.8-0.8,25.1-1.9
	c34.2-4.4,67.1-15.6,96.8-32.9c45.1-26.9,85.7-60.9,120-100.7c34.6,39.6,75,73.6,120,100.7c29.7,17.4,62.6,28.6,96.8,32.9
	c8.3,1.1,16.7,1.7,25.1,1.9c26.9,0.3,53.6-5,78.4-15.5c67.4-27.5,115.2-88.6,125.8-160.6c7.1-34.6,4.1-70.6-8.8-103.5H936.7z
	 M500.4,754.2c-52.2-65.9-86.1-127.7-97.7-180.1c-4.7-19.3-5.7-39.3-3-59c1.9-14.6,7.3-28.5,15.5-40.8
	c19.7-27.4,51.5-43.3,85.2-42.7c33.8-1.3,65.9,14.7,85.2,42.5c8.3,12.1,13.6,26.1,15.5,40.6c2.8,19.7,1.8,39.7-3,59
	c-11.6,51.3-45.3,112.3-97.7,180.1V754.2z M886.6,799.5c-7.6,50.4-40.8,93.2-88.2,112.3c-23.1,9.8-48.4,13.5-73.4,10.7
	c-26-3.2-51-11.7-73.6-25.1c-41.5-25.1-78.8-56.7-110.3-93.6c63.8-78.4,102.7-149.8,117.2-214c6.3-27,7.9-54.8,4.9-82.4
	c-3.6-23.7-12.6-46.2-26.2-65.9c-31.2-44.5-82.4-70.5-136.7-69.5c-54-0.7-104.9,24.9-136.5,68.7c-13.6,19.7-22.6,42.2-26.2,65.9
	c-4.1,27.5-2.4,55.5,4.9,82.4c14.6,63.8,54.3,136.5,117.2,214.9c-31.3,37.1-68.5,68.8-110.3,93.6c-22.5,13.6-47.7,22.4-73.8,25.8
	c-25,2.8-50.2-0.6-73.6-9.7c-47.2-19-80.8-61.8-88.2-112.2c-3.1-25.3,0-51,8.8-74.9c3-9.7,7.7-18.7,12.5-30.9
	c6.7-15.5,14.6-32,22.3-48.4l0.9-1.9c66.8-144.1,138.4-291.3,213-434.7l2.8-6.9l23.2-44.6c7.5-15.4,16.9-29.8,27.9-42.9
	c36.4-42.8,100.6-47.9,143.3-11.5c4.1,3.5,8,7.4,11.5,11.5c10.5,13.1,19.3,27.3,26.4,42.5l23.2,44.6l2.8,5.8
	C706.3,353.6,778.2,500.6,844.8,645v0.9c7.7,15.5,14.6,32.9,22.3,48.4c4.9,11.6,9.7,21.3,12.5,30.9c8,24.1,10.3,49.7,6.7,74.9
	L886.6,799.5z"/>
</svg>
