<svg width="28" height="40" viewBox="0 0 28 40" fill="none" xmlns="http://www.w3.org/2000/svg">
<path d="M14.5722 33.2697H7.78517V25.2354C7.78517 23.5232 8.45057 22.6012 9.94106 22.4169H14.5989C15.3319 22.3568 16.0694 22.4556 16.7598 22.7066C17.4503 22.9576 18.0771 23.3546 18.5966 23.87C19.1161 24.3854 19.5157 25.0067 19.7676 25.6907C20.0195 26.3746 20.1176 27.1048 20.0551 27.8301C20.0551 31.2545 17.9658 33.296 14.5989 33.296L14.5722 33.2697ZM7.77186 11.5509V9.44353C7.77186 7.5996 8.57034 6.70398 10.3004 6.59862H13.7871C16.7681 6.59862 18.5779 8.36352 18.5779 11.3401C18.5779 13.5792 17.3536 16.2134 13.9202 16.2134H7.79848L7.77186 11.5509ZM23.2624 19.5851L22.038 18.9002L23.1027 17.9783C24.3536 16.9246 26.4297 14.5275 26.4297 10.405C26.4297 4.08298 21.4791 0 13.827 0H4.11217C3.01516 0.0373011 1.97508 0.49238 1.2089 1.27029C0.442729 2.04821 0.00964323 3.08887 0 4.17517V40H14C22.5171 40 28 35.4165 28 28.3042C28 24.4847 26.23 21.192 23.2357 19.5456" fill="#6E7B8B"/>
</svg>
