<svg width="110" height="117" viewBox="0 0 110 117" fill="none" xmlns="http://www.w3.org/2000/svg">
<path d="M103.928 116.193C104.726 116.193 105.515 116.028 106.252 115.705C106.989 115.383 107.658 114.911 108.222 114.315C108.786 113.72 109.233 113.013 109.538 112.235C109.843 111.457 110 110.623 110 109.781V6.42443C110 5.58224 109.843 4.74828 109.538 3.97017C109.233 3.19206 108.786 2.48505 108.222 1.88954C107.658 1.29403 106.989 0.82168 106.252 0.499478C105.515 0.177275 104.726 0.0115323 103.928 0.0117189H6.07151C5.27414 0.0115323 4.48455 0.177275 3.74784 0.499478C3.01113 0.82168 2.34174 1.29403 1.77791 1.88954C1.21408 2.48505 0.766867 3.19206 0.461807 3.97017C0.156748 4.74828 -0.000176515 5.58224 1.48999e-07 6.42443V109.781C-0.000176515 110.623 0.156748 111.457 0.461807 112.235C0.766867 113.013 1.21408 113.72 1.77791 114.315C2.34174 114.911 3.01113 115.383 3.74784 115.705C4.48455 116.028 5.27414 116.193 6.07151 116.193H103.928Z" fill="#395185"/>
<path d="M75.8973 116.192V71.2009H90.1959L92.3368 53.6672H75.8973V42.478C75.8973 37.4018 77.2326 33.9419 84.1244 33.9419H92.915V18.2503C91.3941 18.0358 86.1765 17.5586 80.1063 17.5586C67.4308 17.5586 58.7545 25.7296 58.7545 40.7367V53.6615H44.4196V71.2009H58.7545V116.192H75.8973Z" fill="white"/>
</svg>
