<svg width="147" height="117" viewBox="0 0 147 117" fill="none" xmlns="http://www.w3.org/2000/svg">
<path d="M33.3787 10.7695C39.9471 15.9477 46.5345 21.1059 53.1029 26.304C59.4253 31.3023 65.7476 36.2805 72.0321 41.3387C72.9785 42.0984 73.5653 42.1384 74.5497 41.3587C86.9861 31.4422 99.4604 21.5857 111.935 11.7092C112.351 11.3893 112.787 11.1094 113.222 10.7895C113.241 11.6692 113.26 12.5489 113.26 13.4286C113.279 27.7035 113.279 41.9785 113.298 56.2534C113.26 56.3534 113.241 56.4333 113.203 56.5333C107.96 60.6519 102.697 64.7504 97.4729 68.8889C89.8255 74.9268 82.1781 80.9846 74.5686 87.0825C73.6032 87.8422 73.0164 87.8422 72.0699 87.0625C59.5199 77.046 46.932 67.1096 34.3441 57.1331C34.0602 56.9132 33.7384 56.7132 33.4355 56.5133C33.3976 56.4134 33.3787 56.3134 33.3598 56.2134C33.3598 41.0588 33.3787 25.9042 33.3787 10.7695Z" fill="#EF463D"/>
<path d="M33.3598 56.2127C33.3787 56.3127 33.3977 56.4126 33.4355 56.5126C33.4166 62.7104 33.3977 68.9282 33.3787 75.126C33.3787 88.2414 33.3598 101.377 33.3977 114.492C33.3977 115.732 33.1705 116.191 31.8833 116.171C24.7092 116.091 17.535 116.151 10.3609 116.131C4.51176 116.111 0.082331 111.553 0.0634018 105.495C0.0444727 80.6241 0.0634018 55.7329 0.0634018 30.8617C0.0634018 30.5818 0.101261 30.3219 0.12019 30.042C0.669136 30.4419 1.23701 30.8417 1.76703 31.2616C12.3106 39.5786 22.8352 47.8957 33.3598 56.2127Z" fill="#427CBF"/>
<path d="M113.203 56.5342C113.241 56.4342 113.26 56.3542 113.298 56.2543C115.872 54.235 118.465 52.2157 121.04 50.1764C129.52 43.4788 138 36.7811 146.481 30.1035C146.499 30.7633 146.556 31.423 146.556 32.0828C146.556 56.2942 146.556 80.5056 146.556 104.717C146.556 111.735 142.411 116.153 135.786 116.153C128.876 116.153 121.967 116.093 115.039 116.193C113.468 116.213 113.203 115.713 113.222 114.174C113.279 95.6203 113.26 77.0669 113.26 58.4935C113.26 57.8337 113.222 57.1939 113.203 56.5342Z" fill="#00AF59"/>
<path d="M33.3598 56.213C22.8352 47.8959 12.3106 39.5789 1.78594 31.2618C1.25592 30.842 0.688048 30.4421 0.139101 30.0423C0.139101 24.6842 -0.258411 19.2861 0.290535 13.948C1.48307 2.45204 13.9006 -3.74576 23.0813 2.61199C26.6589 5.09111 29.9715 8.03007 33.3977 10.7491C33.3787 25.9037 33.3598 41.0584 33.3598 56.213Z" fill="#DC2226"/>
<path d="M146.462 30.082C137.981 36.7796 129.501 43.4772 121.021 50.1549C118.446 52.1942 115.853 54.2134 113.279 56.2327C113.26 41.9578 113.26 27.6828 113.241 13.4079C113.241 12.5282 113.222 11.6485 113.203 10.7688C116.629 8.02981 119.942 5.09086 123.519 2.59174C133.079 -4.0659 145.837 2.89163 146.481 15.1073C146.764 20.1055 146.499 25.1038 146.462 30.082Z" fill="#FDB716"/>
</svg>
