<svg width="130" height="138" viewBox="0 0 130 138" fill="none" xmlns="http://www.w3.org/2000/svg">
<path d="M110.563 20.2343C98.3968 7.37483 82.2173 0.289346 64.9816 0.28125C29.4616 0.28125 0.556486 30.801 0.541155 68.3155C0.528253 80.2554 3.49516 91.9879 9.14292 102.331L0 137.587L34.1603 128.126C43.6085 133.561 54.1955 136.408 64.954 136.408H64.9816C100.496 136.408 129.405 105.883 129.421 68.3705C129.421 50.1905 122.729 33.0953 110.564 20.2343H110.563ZM64.9816 124.917H64.9601C55.3685 124.918 45.9529 122.195 37.7 117.033L35.7439 115.809L15.4728 121.423L20.8843 100.555L19.6088 98.4158C14.2451 89.4012 11.4064 78.9673 11.421 68.3203C11.4333 37.14 35.4587 11.7773 65.0015 11.7773C79.2056 11.7838 92.8256 17.7492 102.866 28.3613C112.906 38.9735 118.544 53.3633 118.539 68.3657C118.527 99.5476 94.5014 124.917 64.9816 124.917Z" fill="#E0E0E0"/>
<path d="M2.95874 133.676L11.6832 100.023C6.29265 90.1534 3.46105 78.9573 3.47383 67.5634C3.48763 31.7636 31.0682 2.63477 64.9678 2.63477C81.4171 2.63477 96.8546 9.40451 108.466 21.6778C120.077 33.9511 126.468 50.2723 126.46 67.6201C126.446 103.422 98.8659 132.549 64.9694 132.549H64.9418C54.6762 132.548 44.5744 129.831 35.5584 124.647L2.95874 133.676Z" fill="url(#paint0_linear_102_101)"/>
<path fill-rule="evenodd" clip-rule="evenodd" d="M49.0581 39.431C47.8655 36.6314 46.6053 36.5764 45.4755 36.5278C44.5557 36.4857 43.4826 36.4873 42.4263 36.4873C41.3701 36.4873 39.6393 36.9083 38.1814 38.5922C36.7235 40.2762 32.6104 44.3419 32.6104 52.6126C32.6104 60.8833 38.3147 68.8739 39.1089 69.996C39.903 71.1181 50.1205 88.6326 66.2985 95.37C79.743 100.971 82.4795 99.8567 85.3968 99.5798C88.3142 99.303 94.8142 95.5141 96.1402 91.5876C97.4663 87.6611 97.4663 84.3014 97.0692 83.5954C96.6722 82.8894 95.6098 82.4749 94.0185 81.6346C92.4272 80.7942 84.6012 76.7269 83.1417 76.1667C81.6823 75.6064 80.6215 75.3247 79.5606 77.0086C78.4998 78.6926 75.4506 82.4717 74.5216 83.5922C73.5926 84.7126 72.6651 84.8567 71.0738 84.0164C69.4826 83.176 64.3546 81.4014 58.2716 75.6728C53.5392 71.2169 50.3459 65.7149 49.4169 64.031C48.4879 62.3471 49.3172 61.4403 50.1159 60.6016C50.8303 59.8487 51.7072 58.6392 52.5028 57.6579C53.2985 56.6767 53.5622 55.9756 54.0941 54.8552C54.6261 53.7347 54.3593 52.7502 53.9607 51.9099C53.5622 51.0695 50.4701 42.7551 49.0551 39.431H49.0581Z" fill="white"/>
<path d="M110.037 20.0196C98.0106 7.30754 82.0166 0.303018 64.9786 0.294922C29.8725 0.294922 1.29241 30.4649 1.27862 67.5487C1.26448 79.3512 4.1971 90.9489 9.78074 101.172L0.743591 136.023L34.5099 126.671C43.8495 132.043 54.3147 134.858 64.9495 134.859H64.9771C100.083 134.859 128.66 104.684 128.676 67.6021C128.676 49.6294 122.062 32.7317 110.036 20.0196H110.037ZM64.9786 123.501H64.9571C55.4758 123.5 46.1688 120.809 38.0097 115.708L36.0766 114.496L16.037 120.045L21.3872 99.4172L20.1271 97.3025C14.8243 88.3914 12.018 78.077 12.0327 67.5519C12.045 36.7311 35.7945 11.655 64.9985 11.655C71.9514 11.658 78.8357 13.1074 85.2582 15.9205C91.6807 18.7335 97.5157 22.8552 102.43 28.0501C107.344 33.245 111.242 39.4114 113.9 46.1972C116.558 52.983 117.924 60.2553 117.921 67.5989C117.906 98.4214 94.1581 123.501 64.9786 123.501Z" fill="white"/>
<defs>
<linearGradient id="paint0_linear_102_101" x1="64.5115" y1="134.716" x2="64.5115" y2="3.7384" gradientUnits="userSpaceOnUse">
<stop stop-color="#20B038"/>
<stop offset="1" stop-color="#60D66A"/>
</linearGradient>
</defs>
</svg>
