<svg width="140" height="140" viewBox="0 0 140 140" fill="none" xmlns="http://www.w3.org/2000/svg">
<g clip-path="url(#clip0_102_69)">
<path d="M51.2959 116.368H27.8039V88.27C27.8039 82.278 30.1139 79.058 35.2659 78.414H51.3939C61.0259 77.616 69.4819 84.784 70.2799 94.416C70.3639 95.396 70.3639 96.376 70.2799 97.356C70.2799 109.326 63.0419 116.466 51.3939 116.466L51.2959 116.368ZM27.7619 40.404V33.04C27.7619 26.586 30.5199 23.464 36.5119 23.086H48.5799C58.8979 23.086 65.1699 29.26 65.1699 39.676C65.1699 47.502 60.9279 56.714 49.0419 56.714H27.8459L27.7619 40.404ZM81.3819 68.502L77.1399 66.108L80.8219 62.888C85.1479 59.206 92.3439 50.82 92.3439 36.4C92.3439 14.28 75.2079 0 48.7199 0H15.0919C7.19594 0.28 0.923943 6.72 0.853943 14.602V139.902H49.3079C78.7919 139.902 97.7619 123.872 97.7619 98.994C97.7619 85.638 91.6299 74.116 81.2699 68.362" fill="#273C7E"/>
<path d="M105.42 123.088C105.42 113.736 112.924 106.176 122.234 106.176C131.544 106.176 139.146 113.736 139.146 123.088C139.146 132.44 131.586 140 122.234 140C112.882 140 105.42 132.44 105.42 123.088Z" fill="#4D9ED7"/>
</g>
<defs>
<clipPath id="clip0_102_69">
<rect width="140" height="140" fill="white"/>
</clipPath>
</defs>
</svg>
